<?xml version="1.0" encoding="UTF-8" standalone="no"?>
<!DOCTYPE svg PUBLIC "-//W3C//DTD SVG 1.1//EN"
 "http://www.w3.org/Graphics/SVG/1.1/DTD/svg11.dtd">
<!-- Generated by graphviz version 2.38.0 (20140413.2041)
 -->
<!-- Title: controllers_diagram Pages: 1 -->
<svg width="897pt" height="906pt"
 viewBox="0.00 0.00 896.50 906.00" xmlns="http://www.w3.org/2000/svg" xmlns:xlink="http://www.w3.org/1999/xlink">
<g id="graph0" class="graph" transform="scale(1 1) rotate(0) translate(382 524)">
<title>controllers_diagram</title>
<polygon fill="white" stroke="none" points="-382,382 -382,-524 514.5,-524 514.5,382 -382,382"/>
<!-- _diagram_info -->
<g id="node1" class="node"><title>_diagram_info</title>
<text text-anchor="start" x="-298" y="242.4" font-family="Times,serif" font-size="13.00">Controllers diagram</text>
<text text-anchor="start" x="-298" y="256.4" font-family="Times,serif" font-size="13.00">Date: Dec 15 2014 &#45; 14:23</text>
<text text-anchor="start" x="-298" y="270.4" font-family="Times,serif" font-size="13.00">Migration version: 20141202114457</text>
<text text-anchor="start" x="-298" y="284.4" font-family="Times,serif" font-size="13.00">Generated by RailRoady 1.2.0</text>
<text text-anchor="start" x="-298" y="298.4" font-family="Times,serif" font-size="13.00">http://railroady.prestonlee.com</text>
</g>
<!-- ApplicationController -->
<g id="node2" class="node"><title>ApplicationController</title>
<path fill="none" stroke="black" d="M354,-324.5C354,-324.5 470,-324.5 470,-324.5 476,-324.5 482,-330.5 482,-336.5 482,-336.5 482,-405.5 482,-405.5 482,-411.5 476,-417.5 470,-417.5 470,-417.5 354,-417.5 354,-417.5 348,-417.5 342,-411.5 342,-405.5 342,-405.5 342,-336.5 342,-336.5 342,-330.5 348,-324.5 354,-324.5"/>
<text text-anchor="middle" x="412" y="-402.3" font-family="Times,serif" font-size="14.00">ApplicationController</text>
<polyline fill="none" stroke="black" points="342,-394.5 482,-394.5 "/>
<text text-anchor="start" x="350" y="-379.3" font-family="Times,serif" font-size="14.00">after_sign_in_path_for</text>
<polyline fill="none" stroke="black" points="342,-371.5 482,-371.5 "/>
<polyline fill="none" stroke="black" points="342,-347.5 482,-347.5 "/>
<text text-anchor="start" x="350" y="-332.3" font-family="Times,serif" font-size="14.00">_layout</text>
</g>
<!-- SessionsController -->
<g id="node3" class="node"><title>SessionsController</title>
<path fill="none" stroke="black" d="M192.5,-396.5C192.5,-396.5 287.5,-396.5 287.5,-396.5 293.5,-396.5 299.5,-402.5 299.5,-408.5 299.5,-408.5 299.5,-507.5 299.5,-507.5 299.5,-513.5 293.5,-519.5 287.5,-519.5 287.5,-519.5 192.5,-519.5 192.5,-519.5 186.5,-519.5 180.5,-513.5 180.5,-507.5 180.5,-507.5 180.5,-408.5 180.5,-408.5 180.5,-402.5 186.5,-396.5 192.5,-396.5"/>
<text text-anchor="middle" x="240" y="-504.3" font-family="Times,serif" font-size="14.00">SessionsController</text>
<polyline fill="none" stroke="black" points="180.5,-496.5 299.5,-496.5 "/>
<text text-anchor="start" x="188.5" y="-481.3" font-family="Times,serif" font-size="14.00">create</text>
<text text-anchor="start" x="188.5" y="-466.3" font-family="Times,serif" font-size="14.00">login</text>
<text text-anchor="start" x="188.5" y="-451.3" font-family="Times,serif" font-size="14.00">switch_registrar</text>
<polyline fill="none" stroke="black" points="180.5,-443.5 299.5,-443.5 "/>
<polyline fill="none" stroke="black" points="180.5,-419.5 299.5,-419.5 "/>
<text text-anchor="start" x="188.5" y="-404.3" font-family="Times,serif" font-size="14.00">_layout</text>
</g>
<!-- Epp::CommandsController -->
<g id="node4" class="node"><title>Epp::CommandsController</title>
<path fill="none" stroke="black" d="M156,-144C156,-144 296,-144 296,-144 302,-144 308,-150 308,-156 308,-156 308,-346 308,-346 308,-352 302,-358 296,-358 296,-358 156,-358 156,-358 150,-358 144,-352 144,-346 144,-346 144,-156 144,-156 144,-150 150,-144 156,-144"/>
<text text-anchor="middle" x="226" y="-342.8" font-family="Times,serif" font-size="14.00">Epp::CommandsController</text>
<polyline fill="none" stroke="black" points="144,-335 308,-335 "/>
<polyline fill="none" stroke="black" points="144,-311 308,-311 "/>
<polyline fill="none" stroke="black" points="144,-287 308,-287 "/>
<text text-anchor="start" x="152" y="-271.8" font-family="Times,serif" font-size="14.00">_layout</text>
<text text-anchor="start" x="152" y="-256.8" font-family="Times,serif" font-size="14.00">check</text>
<text text-anchor="start" x="152" y="-241.8" font-family="Times,serif" font-size="14.00">create</text>
<text text-anchor="start" x="152" y="-226.8" font-family="Times,serif" font-size="14.00">delete</text>
<text text-anchor="start" x="152" y="-211.8" font-family="Times,serif" font-size="14.00">info</text>
<text text-anchor="start" x="152" y="-196.8" font-family="Times,serif" font-size="14.00">renew</text>
<text text-anchor="start" x="152" y="-181.8" font-family="Times,serif" font-size="14.00">transfer</text>
<text text-anchor="start" x="152" y="-166.8" font-family="Times,serif" font-size="14.00">update</text>
<text text-anchor="start" x="152" y="-151.8" font-family="Times,serif" font-size="14.00">user_for_paper_trail</text>
</g>
<!-- Epp::SessionsController -->
<g id="node5" class="node"><title>Epp::SessionsController</title>
<path fill="none" stroke="black" d="M-258,197C-258,197 -134,197 -134,197 -128,197 -122,191 -122,185 -122,185 -122,55 -122,55 -122,49 -128,43 -134,43 -134,43 -258,43 -258,43 -264,43 -270,49 -270,55 -270,55 -270,185 -270,185 -270,191 -264,197 -258,197"/>
<text text-anchor="middle" x="-196" y="58.2" font-family="Times,serif" font-size="14.00">Epp::SessionsController</text>
<polyline fill="none" stroke="black" points="-270,66 -122,66 "/>
<polyline fill="none" stroke="black" points="-270,90 -122,90 "/>
<polyline fill="none" stroke="black" points="-270,114 -122,114 "/>
<text text-anchor="start" x="-262" y="129.2" font-family="Times,serif" font-size="14.00">_layout</text>
<text text-anchor="start" x="-262" y="144.2" font-family="Times,serif" font-size="14.00">hello</text>
<text text-anchor="start" x="-262" y="159.2" font-family="Times,serif" font-size="14.00">login</text>
<text text-anchor="start" x="-262" y="174.2" font-family="Times,serif" font-size="14.00">login_params</text>
<text text-anchor="start" x="-262" y="189.2" font-family="Times,serif" font-size="14.00">logout</text>
</g>
<!-- Epp::ErrorsController -->
<g id="node6" class="node"><title>Epp::ErrorsController</title>
<path fill="none" stroke="black" d="M246.5,377.5C246.5,377.5 357.5,377.5 357.5,377.5 363.5,377.5 369.5,371.5 369.5,365.5 369.5,365.5 369.5,296.5 369.5,296.5 369.5,290.5 363.5,284.5 357.5,284.5 357.5,284.5 246.5,284.5 246.5,284.5 240.5,284.5 234.5,290.5 234.5,296.5 234.5,296.5 234.5,365.5 234.5,365.5 234.5,371.5 240.5,377.5 246.5,377.5"/>
<text text-anchor="middle" x="302" y="299.7" font-family="Times,serif" font-size="14.00">Epp::ErrorsController</text>
<polyline fill="none" stroke="black" points="234.5,307.5 369.5,307.5 "/>
<text text-anchor="start" x="242.5" y="322.7" font-family="Times,serif" font-size="14.00">error</text>
<polyline fill="none" stroke="black" points="234.5,330.5 369.5,330.5 "/>
<polyline fill="none" stroke="black" points="234.5,354.5 369.5,354.5 "/>
<text text-anchor="start" x="242.5" y="369.7" font-family="Times,serif" font-size="14.00">_layout</text>
</g>
<!-- AdminController -->
<g id="node7" class="node"><title>AdminController</title>
<path fill="none" stroke="black" d="M-366,-378.5C-366,-378.5 -280,-378.5 -280,-378.5 -274,-378.5 -268,-384.5 -268,-390.5 -268,-390.5 -268,-459.5 -268,-459.5 -268,-465.5 -274,-471.5 -280,-471.5 -280,-471.5 -366,-471.5 -366,-471.5 -372,-471.5 -378,-465.5 -378,-459.5 -378,-459.5 -378,-390.5 -378,-390.5 -378,-384.5 -372,-378.5 -366,-378.5"/>
<text text-anchor="middle" x="-323" y="-456.3" font-family="Times,serif" font-size="14.00">AdminController</text>
<polyline fill="none" stroke="black" points="-378,-448.5 -268,-448.5 "/>
<text text-anchor="start" x="-370" y="-433.3" font-family="Times,serif" font-size="14.00">verify_admin</text>
<polyline fill="none" stroke="black" points="-378,-425.5 -268,-425.5 "/>
<polyline fill="none" stroke="black" points="-378,-401.5 -268,-401.5 "/>
<text text-anchor="start" x="-370" y="-386.3" font-family="Times,serif" font-size="14.00">_layout</text>
</g>
<!-- Admin::UsersController -->
<g id="node8" class="node"><title>Admin::UsersController</title>
<path fill="none" stroke="black" d="M-24.5,-144.5C-24.5,-144.5 100.5,-144.5 100.5,-144.5 106.5,-144.5 112.5,-150.5 112.5,-156.5 112.5,-156.5 112.5,-345.5 112.5,-345.5 112.5,-351.5 106.5,-357.5 100.5,-357.5 100.5,-357.5 -24.5,-357.5 -24.5,-357.5 -30.5,-357.5 -36.5,-351.5 -36.5,-345.5 -36.5,-345.5 -36.5,-156.5 -36.5,-156.5 -36.5,-150.5 -30.5,-144.5 -24.5,-144.5"/>
<text text-anchor="middle" x="38" y="-342.3" font-family="Times,serif" font-size="14.00">Admin::UsersController</text>
<polyline fill="none" stroke="black" points="-36.5,-334.5 112.5,-334.5 "/>
<text text-anchor="start" x="-28.5" y="-319.3" font-family="Times,serif" font-size="14.00">create</text>
<text text-anchor="start" x="-28.5" y="-304.3" font-family="Times,serif" font-size="14.00">destroy</text>
<text text-anchor="start" x="-28.5" y="-289.3" font-family="Times,serif" font-size="14.00">edit</text>
<text text-anchor="start" x="-28.5" y="-274.3" font-family="Times,serif" font-size="14.00">index</text>
<text text-anchor="start" x="-28.5" y="-259.3" font-family="Times,serif" font-size="14.00">new</text>
<text text-anchor="start" x="-28.5" y="-244.3" font-family="Times,serif" font-size="14.00">show</text>
<text text-anchor="start" x="-28.5" y="-229.3" font-family="Times,serif" font-size="14.00">update</text>
<polyline fill="none" stroke="black" points="-36.5,-221.5 112.5,-221.5 "/>
<polyline fill="none" stroke="black" points="-36.5,-197.5 112.5,-197.5 "/>
<text text-anchor="start" x="-28.5" y="-182.3" font-family="Times,serif" font-size="14.00">_layout</text>
<text text-anchor="start" x="-28.5" y="-167.3" font-family="Times,serif" font-size="14.00">set_user</text>
<text text-anchor="start" x="-28.5" y="-152.3" font-family="Times,serif" font-size="14.00">user_params</text>
</g>
<!-- Admin::EppUsersController -->
<g id="node9" class="node"><title>Admin::EppUsersController</title>
<path fill="none" stroke="black" d="M-78,107.5C-78,107.5 68,107.5 68,107.5 74,107.5 80,101.5 80,95.5 80,95.5 80,-93.5 80,-93.5 80,-99.5 74,-105.5 68,-105.5 68,-105.5 -78,-105.5 -78,-105.5 -84,-105.5 -90,-99.5 -90,-93.5 -90,-93.5 -90,95.5 -90,95.5 -90,101.5 -84,107.5 -78,107.5"/>
<text text-anchor="middle" x="-5" y="-90.3" font-family="Times,serif" font-size="14.00">Admin::EppUsersController</text>
<polyline fill="none" stroke="black" points="-90,-82.5 80,-82.5 "/>
<text text-anchor="start" x="-82" y="-67.3" font-family="Times,serif" font-size="14.00">create</text>
<text text-anchor="start" x="-82" y="-52.3" font-family="Times,serif" font-size="14.00">destroy</text>
<text text-anchor="start" x="-82" y="-37.3" font-family="Times,serif" font-size="14.00">edit</text>
<text text-anchor="start" x="-82" y="-22.3" font-family="Times,serif" font-size="14.00">index</text>
<text text-anchor="start" x="-82" y="-7.3" font-family="Times,serif" font-size="14.00">new</text>
<text text-anchor="start" x="-82" y="7.7" font-family="Times,serif" font-size="14.00">show</text>
<text text-anchor="start" x="-82" y="22.7" font-family="Times,serif" font-size="14.00">update</text>
<polyline fill="none" stroke="black" points="-90,30.5 80,30.5 "/>
<polyline fill="none" stroke="black" points="-90,54.5 80,54.5 "/>
<text text-anchor="start" x="-82" y="69.7" font-family="Times,serif" font-size="14.00">_layout</text>
<text text-anchor="start" x="-82" y="84.7" font-family="Times,serif" font-size="14.00">epp_user_params</text>
<text text-anchor="start" x="-82" y="99.7" font-family="Times,serif" font-size="14.00">set_epp_user</text>
</g>
<!-- Admin::RegistrarsController -->
<g id="node10" class="node"><title>Admin::RegistrarsController</title>
<path fill="none" stroke="black" d="M120.5,107.5C120.5,107.5 269.5,107.5 269.5,107.5 275.5,107.5 281.5,101.5 281.5,95.5 281.5,95.5 281.5,-93.5 281.5,-93.5 281.5,-99.5 275.5,-105.5 269.5,-105.5 269.5,-105.5 120.5,-105.5 120.5,-105.5 114.5,-105.5 108.5,-99.5 108.5,-93.5 108.5,-93.5 108.5,95.5 108.5,95.5 108.5,101.5 114.5,107.5 120.5,107.5"/>
<text text-anchor="middle" x="195" y="-90.3" font-family="Times,serif" font-size="14.00">Admin::RegistrarsController</text>
<polyline fill="none" stroke="black" points="108.5,-82.5 281.5,-82.5 "/>
<text text-anchor="start" x="116.5" y="-67.3" font-family="Times,serif" font-size="14.00">create</text>
<text text-anchor="start" x="116.5" y="-52.3" font-family="Times,serif" font-size="14.00">destroy</text>
<text text-anchor="start" x="116.5" y="-37.3" font-family="Times,serif" font-size="14.00">edit</text>
<text text-anchor="start" x="116.5" y="-22.3" font-family="Times,serif" font-size="14.00">index</text>
<text text-anchor="start" x="116.5" y="-7.3" font-family="Times,serif" font-size="14.00">new</text>
<text text-anchor="start" x="116.5" y="7.7" font-family="Times,serif" font-size="14.00">search</text>
<text text-anchor="start" x="116.5" y="22.7" font-family="Times,serif" font-size="14.00">update</text>
<polyline fill="none" stroke="black" points="108.5,30.5 281.5,30.5 "/>
<polyline fill="none" stroke="black" points="108.5,54.5 281.5,54.5 "/>
<text text-anchor="start" x="116.5" y="69.7" font-family="Times,serif" font-size="14.00">_layout</text>
<text text-anchor="start" x="116.5" y="84.7" font-family="Times,serif" font-size="14.00">registrar_params</text>
<text text-anchor="start" x="116.5" y="99.7" font-family="Times,serif" font-size="14.00">set_registrar</text>
</g>
<!-- Admin::DomainVersionsController -->
<g id="node11" class="node"><title>Admin::DomainVersionsController</title>
<path fill="none" stroke="black" d="M246,251C246,251 432,251 432,251 438,251 444,245 444,239 444,239 444,155 444,155 444,149 438,143 432,143 432,143 246,143 246,143 240,143 234,149 234,155 234,155 234,239 234,239 234,245 240,251 246,251"/>
<text text-anchor="middle" x="339" y="158.2" font-family="Times,serif" font-size="14.00">Admin::DomainVersionsController</text>
<polyline fill="none" stroke="black" points="234,166 444,166 "/>
<text text-anchor="start" x="242" y="181.2" font-family="Times,serif" font-size="14.00">index</text>
<text text-anchor="start" x="242" y="196.2" font-family="Times,serif" font-size="14.00">show</text>
<polyline fill="none" stroke="black" points="234,204 444,204 "/>
<polyline fill="none" stroke="black" points="234,228 444,228 "/>
<text text-anchor="start" x="242" y="243.2" font-family="Times,serif" font-size="14.00">_layout</text>
</g>
<!-- Admin::DomainsController -->
<g id="node12" class="node"><title>Admin::DomainsController</title>
<path fill="none" stroke="black" d="M-222.5,-235C-222.5,-235 -79.5,-235 -79.5,-235 -73.5,-235 -67.5,-241 -67.5,-247 -67.5,-247 -67.5,-421 -67.5,-421 -67.5,-427 -73.5,-433 -79.5,-433 -79.5,-433 -222.5,-433 -222.5,-433 -228.5,-433 -234.5,-427 -234.5,-421 -234.5,-421 -234.5,-247 -234.5,-247 -234.5,-241 -228.5,-235 -222.5,-235"/>
<text text-anchor="middle" x="-151" y="-417.8" font-family="Times,serif" font-size="14.00">Admin::DomainsController</text>
<polyline fill="none" stroke="black" points="-234.5,-410 -67.5,-410 "/>
<text text-anchor="start" x="-226.5" y="-394.8" font-family="Times,serif" font-size="14.00">edit</text>
<text text-anchor="start" x="-226.5" y="-379.8" font-family="Times,serif" font-size="14.00">index</text>
<text text-anchor="start" x="-226.5" y="-364.8" font-family="Times,serif" font-size="14.00">show</text>
<text text-anchor="start" x="-226.5" y="-349.8" font-family="Times,serif" font-size="14.00">update</text>
<polyline fill="none" stroke="black" points="-234.5,-342 -67.5,-342 "/>
<polyline fill="none" stroke="black" points="-234.5,-318 -67.5,-318 "/>
<text text-anchor="start" x="-226.5" y="-302.8" font-family="Times,serif" font-size="14.00">_layout</text>
<text text-anchor="start" x="-226.5" y="-287.8" font-family="Times,serif" font-size="14.00">add_prefix_to_statuses</text>
<text text-anchor="start" x="-226.5" y="-272.8" font-family="Times,serif" font-size="14.00">build_associations</text>
<text text-anchor="start" x="-226.5" y="-257.8" font-family="Times,serif" font-size="14.00">domain_params</text>
<text text-anchor="start" x="-226.5" y="-242.8" font-family="Times,serif" font-size="14.00">set_domain</text>
</g>
<!-- Admin::DelayedJobsController -->
<g id="node13" class="node"><title>Admin::DelayedJobsController</title>
<path fill="none" stroke="black" d="M335.5,107.5C335.5,107.5 498.5,107.5 498.5,107.5 504.5,107.5 510.5,101.5 510.5,95.5 510.5,95.5 510.5,26.5 510.5,26.5 510.5,20.5 504.5,14.5 498.5,14.5 498.5,14.5 335.5,14.5 335.5,14.5 329.5,14.5 323.5,20.5 323.5,26.5 323.5,26.5 323.5,95.5 323.5,95.5 323.5,101.5 329.5,107.5 335.5,107.5"/>
<text text-anchor="middle" x="417" y="29.7" font-family="Times,serif" font-size="14.00">Admin::DelayedJobsController</text>
<polyline fill="none" stroke="black" points="323.5,37.5 510.5,37.5 "/>
<text text-anchor="start" x="331.5" y="52.7" font-family="Times,serif" font-size="14.00">index</text>
<polyline fill="none" stroke="black" points="323.5,60.5 510.5,60.5 "/>
<polyline fill="none" stroke="black" points="323.5,84.5 510.5,84.5 "/>
<text text-anchor="start" x="331.5" y="99.7" font-family="Times,serif" font-size="14.00">_layout</text>
</g>
<!-- Admin::ZonefileSettingsController -->
<g id="node14" class="node"><title>Admin::ZonefileSettingsController</title>
<path fill="none" stroke="black" d="M12.5,305.5C12.5,305.5 195.5,305.5 195.5,305.5 201.5,305.5 207.5,299.5 207.5,293.5 207.5,293.5 207.5,164.5 207.5,164.5 207.5,158.5 201.5,152.5 195.5,152.5 195.5,152.5 12.5,152.5 12.5,152.5 6.5,152.5 0.5,158.5 0.5,164.5 0.5,164.5 0.5,293.5 0.5,293.5 0.5,299.5 6.5,305.5 12.5,305.5"/>
<text text-anchor="middle" x="104" y="167.7" font-family="Times,serif" font-size="14.00">Admin::ZonefileSettingsController</text>
<polyline fill="none" stroke="black" points="0.5,175.5 207.5,175.5 "/>
<text text-anchor="start" x="8.5" y="190.7" font-family="Times,serif" font-size="14.00">edit</text>
<text text-anchor="start" x="8.5" y="205.7" font-family="Times,serif" font-size="14.00">index</text>
<text text-anchor="start" x="8.5" y="220.7" font-family="Times,serif" font-size="14.00">update</text>
<polyline fill="none" stroke="black" points="0.5,228.5 207.5,228.5 "/>
<polyline fill="none" stroke="black" points="0.5,252.5 207.5,252.5 "/>
<text text-anchor="start" x="8.5" y="267.7" font-family="Times,serif" font-size="14.00">_layout</text>
<text text-anchor="start" x="8.5" y="282.7" font-family="Times,serif" font-size="14.00">set_zonefile_setting</text>
<text text-anchor="start" x="8.5" y="297.7" font-family="Times,serif" font-size="14.00">zonefile_setting_params</text>
</g>
<!-- Admin::ContactsController -->
<g id="node15" class="node"><title>Admin::ContactsController</title>
<path fill="none" stroke="black" d="M354.5,-18.5C354.5,-18.5 495.5,-18.5 495.5,-18.5 501.5,-18.5 507.5,-24.5 507.5,-30.5 507.5,-30.5 507.5,-129.5 507.5,-129.5 507.5,-135.5 501.5,-141.5 495.5,-141.5 495.5,-141.5 354.5,-141.5 354.5,-141.5 348.5,-141.5 342.5,-135.5 342.5,-129.5 342.5,-129.5 342.5,-30.5 342.5,-30.5 342.5,-24.5 348.5,-18.5 354.5,-18.5"/>
<text text-anchor="middle" x="425" y="-126.3" font-family="Times,serif" font-size="14.00">Admin::ContactsController</text>
<polyline fill="none" stroke="black" points="342.5,-118.5 507.5,-118.5 "/>
<text text-anchor="start" x="350.5" y="-103.3" font-family="Times,serif" font-size="14.00">index</text>
<text text-anchor="start" x="350.5" y="-88.3" font-family="Times,serif" font-size="14.00">search</text>
<polyline fill="none" stroke="black" points="342.5,-80.5 507.5,-80.5 "/>
<polyline fill="none" stroke="black" points="342.5,-56.5 507.5,-56.5 "/>
<text text-anchor="start" x="350.5" y="-41.3" font-family="Times,serif" font-size="14.00">_layout</text>
<text text-anchor="start" x="350.5" y="-26.3" font-family="Times,serif" font-size="14.00">set_contact</text>
</g>
<!-- Admin::SettingsController -->
<g id="node16" class="node"><title>Admin::SettingsController</title>
<path fill="none" stroke="black" d="M-275.5,-0.5C-275.5,-0.5 -138.5,-0.5 -138.5,-0.5 -132.5,-0.5 -126.5,-6.5 -126.5,-12.5 -126.5,-12.5 -126.5,-171.5 -126.5,-171.5 -126.5,-177.5 -132.5,-183.5 -138.5,-183.5 -138.5,-183.5 -275.5,-183.5 -275.5,-183.5 -281.5,-183.5 -287.5,-177.5 -287.5,-171.5 -287.5,-171.5 -287.5,-12.5 -287.5,-12.5 -287.5,-6.5 -281.5,-0.5 -275.5,-0.5"/>
<text text-anchor="middle" x="-207" y="-168.3" font-family="Times,serif" font-size="14.00">Admin::SettingsController</text>
<polyline fill="none" stroke="black" points="-287.5,-160.5 -126.5,-160.5 "/>
<text text-anchor="start" x="-279.5" y="-145.3" font-family="Times,serif" font-size="14.00">create</text>
<text text-anchor="start" x="-279.5" y="-130.3" font-family="Times,serif" font-size="14.00">index</text>
<text text-anchor="start" x="-279.5" y="-115.3" font-family="Times,serif" font-size="14.00">show</text>
<text text-anchor="start" x="-279.5" y="-100.3" font-family="Times,serif" font-size="14.00">update</text>
<polyline fill="none" stroke="black" points="-287.5,-92.5 -126.5,-92.5 "/>
<polyline fill="none" stroke="black" points="-287.5,-68.5 -126.5,-68.5 "/>
<text text-anchor="start" x="-279.5" y="-53.3" font-family="Times,serif" font-size="14.00">_layout</text>
<text text-anchor="start" x="-279.5" y="-38.3" font-family="Times,serif" font-size="14.00">casted_settings</text>
<text text-anchor="start" x="-279.5" y="-23.3" font-family="Times,serif" font-size="14.00">set_setting_group</text>
<text text-anchor="start" x="-279.5" y="-8.3" font-family="Times,serif" font-size="14.00">setting_group_params</text>
</g>
<!-- Admin::ZonefilesController -->
<g id="node17" class="node"><title>Admin::ZonefilesController</title>
<path fill="none" stroke="black" d="M353.5,-181C353.5,-181 498.5,-181 498.5,-181 504.5,-181 510.5,-187 510.5,-193 510.5,-193 510.5,-277 510.5,-277 510.5,-283 504.5,-289 498.5,-289 498.5,-289 353.5,-289 353.5,-289 347.5,-289 341.5,-283 341.5,-277 341.5,-277 341.5,-193 341.5,-193 341.5,-187 347.5,-181 353.5,-181"/>
<text text-anchor="middle" x="426" y="-273.8" font-family="Times,serif" font-size="14.00">Admin::ZonefilesController</text>
<polyline fill="none" stroke="black" points="341.5,-266 510.5,-266 "/>
<text text-anchor="start" x="349.5" y="-250.8" font-family="Times,serif" font-size="14.00">create</text>
<text text-anchor="start" x="349.5" y="-235.8" font-family="Times,serif" font-size="14.00">index</text>
<polyline fill="none" stroke="black" points="341.5,-228 510.5,-228 "/>
<polyline fill="none" stroke="black" points="341.5,-204 510.5,-204 "/>
<text text-anchor="start" x="349.5" y="-188.8" font-family="Times,serif" font-size="14.00">_layout</text>
</g>
</g>
</svg>
