<?xml version="1.0" encoding="UTF-8" standalone="no"?>
<!DOCTYPE svg PUBLIC "-//W3C//DTD SVG 1.1//EN"
 "http://www.w3.org/Graphics/SVG/1.1/DTD/svg11.dtd">
<!-- Generated by graphviz version 2.38.0 (20140413.2041)
 -->
<!-- Title: models_diagram Pages: 1 -->
<svg width="2230pt" height="580pt"
 viewBox="0.00 0.00 2229.69 580.00" xmlns="http://www.w3.org/2000/svg" xmlns:xlink="http://www.w3.org/1999/xlink">
<g id="graph0" class="graph" transform="scale(1 1) rotate(0) translate(4 576)">
<title>models_diagram</title>
<polygon fill="white" stroke="none" points="-4,4 -4,-576 2225.69,-576 2225.69,4 -4,4"/>
<!-- _diagram_info -->
<g id="node1" class="node"><title>_diagram_info</title>
<text text-anchor="start" x="521.243" y="-557.6" font-family="Times,serif" font-size="13.00">Models diagram</text>
<text text-anchor="start" x="521.243" y="-543.6" font-family="Times,serif" font-size="13.00">Date: Dec 15 2014 &#45; 14:23</text>
<text text-anchor="start" x="521.243" y="-529.6" font-family="Times,serif" font-size="13.00">Migration version: 20141202114457</text>
<text text-anchor="start" x="521.243" y="-515.6" font-family="Times,serif" font-size="13.00">Generated by RailRoady 1.2.0</text>
<text text-anchor="start" x="521.243" y="-501.6" font-family="Times,serif" font-size="13.00">http://railroady.prestonlee.com</text>
</g>
<!-- Ability -->
<g id="node2" class="node"><title>Ability</title>
<polygon fill="none" stroke="black" points="800.743,-551 745.743,-551 745.743,-515 800.743,-515 800.743,-551"/>
<text text-anchor="middle" x="773.243" y="-529.3" font-family="Times,serif" font-size="14.00">Ability</text>
</g>
<!-- ContactDisclosure -->
<g id="node3" class="node"><title>ContactDisclosure</title>
<ellipse fill="none" stroke="black" cx="904.243" cy="-192" rx="75.2868" ry="18"/>
<text text-anchor="middle" x="904.243" y="-188.3" font-family="Times,serif" font-size="14.00">ContactDisclosure</text>
</g>
<!-- DomainStatusVersion -->
<g id="node4" class="node"><title>DomainStatusVersion</title>
<ellipse fill="none" stroke="black" cx="569.243" cy="-18" rx="89.0842" ry="18"/>
<text text-anchor="middle" x="569.243" y="-14.3" font-family="Times,serif" font-size="14.00">DomainStatusVersion</text>
</g>
<!-- DomainContact -->
<g id="node5" class="node"><title>DomainContact</title>
<ellipse fill="none" stroke="black" cx="869.243" cy="-105" rx="66.8882" ry="18"/>
<text text-anchor="middle" x="869.243" y="-101.3" font-family="Times,serif" font-size="14.00">DomainContact</text>
</g>
<!-- Right -->
<g id="node6" class="node"><title>Right</title>
<ellipse fill="none" stroke="black" cx="849.243" cy="-533" rx="30.5947" ry="18"/>
<text text-anchor="middle" x="849.243" y="-529.3" font-family="Times,serif" font-size="14.00">Right</text>
</g>
<!-- Role -->
<g id="node25" class="node"><title>Role</title>
<ellipse fill="none" stroke="black" cx="849.243" cy="-425" rx="27.0966" ry="18"/>
<text text-anchor="middle" x="849.243" y="-421.3" font-family="Times,serif" font-size="14.00">Role</text>
</g>
<!-- Right&#45;&gt;Role -->
<g id="edge1" class="edge"><title>Right&#45;&gt;Role</title>
<path fill="none" stroke="#52fd86" d="M849.243,-504.931C849.243,-489.187 849.243,-469.393 849.243,-453.566"/>
<polygon fill="#52fd86" stroke="#52fd86" points="849.243,-504.969 844.743,-514.969 849.243,-509.969 849.243,-514.969 849.243,-514.969 849.243,-514.969 849.243,-509.969 853.743,-514.969 849.243,-504.969 849.243,-504.969"/>
<polygon fill="#52fd86" stroke="#52fd86" points="849.243,-453.341 853.743,-443.341 849.243,-448.341 849.243,-443.341 849.243,-443.341 849.243,-443.341 849.243,-448.341 844.743,-443.341 849.243,-453.341 849.243,-453.341"/>
</g>
<!-- Contact -->
<g id="node7" class="node"><title>Contact</title>
<ellipse fill="none" stroke="black" cx="794.243" cy="-279" rx="38.1938" ry="18"/>
<text text-anchor="middle" x="794.243" y="-275.3" font-family="Times,serif" font-size="14.00">Contact</text>
</g>
<!-- Contact&#45;&gt;ContactDisclosure -->
<g id="edge3" class="edge"><title>Contact&#45;&gt;ContactDisclosure</title>
<path fill="none" stroke="#73d146" d="M819.887,-258.184C836.832,-245.09 859.036,-227.932 876.41,-214.507"/>
<ellipse fill="none" stroke="#73d146" cx="816.568" cy="-260.748" rx="4.00002" ry="4.00002"/>
<ellipse fill="#73d146" stroke="#73d146" cx="879.885" cy="-211.822" rx="4.00002" ry="4.00002"/>
<text text-anchor="middle" x="883.743" y="-231.8" font-family="Times,serif" font-size="14.00">disclosure</text>
</g>
<!-- Contact&#45;&gt;DomainContact -->
<g id="edge4" class="edge"><title>Contact&#45;&gt;DomainContact</title>
<path fill="none" stroke="#250a3e" d="M797.806,-252.712C801.492,-231.076 808.411,-199.483 820.243,-174 827.413,-158.558 838.264,-143.028 847.934,-130.715"/>
<ellipse fill="none" stroke="#250a3e" cx="797.144" cy="-256.815" rx="4.00001" ry="4.00001"/>
<polygon fill="#250a3e" stroke="#250a3e" points="848.091,-130.52 857.879,-125.575 851.235,-126.633 854.38,-122.745 854.38,-122.745 854.38,-122.745 851.235,-126.633 850.881,-119.915 848.091,-130.52 848.091,-130.52"/>
</g>
<!-- ContactVersion -->
<g id="node20" class="node"><title>ContactVersion</title>
<ellipse fill="none" stroke="black" cx="1063.24" cy="-192" rx="65.7887" ry="18"/>
<text text-anchor="middle" x="1063.24" y="-188.3" font-family="Times,serif" font-size="14.00">ContactVersion</text>
</g>
<!-- Contact&#45;&gt;ContactVersion -->
<g id="edge6" class="edge"><title>Contact&#45;&gt;ContactVersion</title>
<path fill="none" stroke="#32efde" d="M834.2,-266.922C857.845,-260.247 888.339,-251.431 915.243,-243 948.58,-232.553 985.839,-219.96 1014.63,-210.026"/>
<ellipse fill="none" stroke="#32efde" cx="830.309" cy="-268.017" rx="4.00001" ry="4.00001"/>
<polygon fill="#32efde" stroke="#32efde" points="1014.99,-209.901 1025.92,-210.883 1019.72,-208.266 1024.45,-206.631 1024.45,-206.631 1024.45,-206.631 1019.72,-208.266 1022.97,-202.378 1014.99,-209.901 1014.99,-209.901"/>
<text text-anchor="middle" x="983.243" y="-231.8" font-family="Times,serif" font-size="14.00">versions</text>
</g>
<!-- Address -->
<g id="node26" class="node"><title>Address</title>
<ellipse fill="none" stroke="black" cx="1186.24" cy="-192" rx="39.7935" ry="18"/>
<text text-anchor="middle" x="1186.24" y="-188.3" font-family="Times,serif" font-size="14.00">Address</text>
</g>
<!-- Contact&#45;&gt;Address -->
<g id="edge2" class="edge"><title>Contact&#45;&gt;Address</title>
<path fill="none" stroke="#544287" d="M838.894,-271.985C882.727,-265.793 951.384,-255.329 1010.24,-243 1067.74,-230.956 1082.05,-227.157 1138.24,-210 1141.66,-208.955 1145.2,-207.816 1148.74,-206.638"/>
<ellipse fill="none" stroke="#544287" cx="834.699" cy="-272.573" rx="4.00001" ry="4.00001"/>
<ellipse fill="#544287" stroke="#544287" cx="1152.63" cy="-205.31" rx="4.00001" ry="4.00001"/>
</g>
<!-- Domain -->
<g id="node27" class="node"><title>Domain</title>
<ellipse fill="none" stroke="black" cx="569.243" cy="-192" rx="39.7935" ry="18"/>
<text text-anchor="middle" x="569.243" y="-188.3" font-family="Times,serif" font-size="14.00">Domain</text>
</g>
<!-- Contact&#45;&gt;Domain -->
<g id="edge5" class="edge"><title>Contact&#45;&gt;Domain</title>
<path fill="none" stroke="#ae13eb" d="M745.73,-275.751C691.324,-272.249 607.626,-263.602 584.243,-243 577.668,-237.207 573.92,-228.658 571.801,-220.261"/>
<polygon fill="#ae13eb" stroke="#ae13eb" points="745.879,-275.76 755.588,-280.858 750.87,-276.063 755.86,-276.366 755.86,-276.366 755.86,-276.366 750.87,-276.063 756.133,-271.875 745.879,-275.76 745.879,-275.76"/>
<polygon fill="#ae13eb" stroke="#ae13eb" points="571.775,-220.119 574.368,-209.465 570.86,-215.204 569.944,-210.288 569.944,-210.288 569.944,-210.288 570.86,-215.204 565.521,-211.112 571.775,-220.119 571.775,-220.119"/>
</g>
<!-- DomainVersion -->
<g id="node8" class="node"><title>DomainVersion</title>
<ellipse fill="none" stroke="black" cx="716.243" cy="-105" rx="67.6881" ry="18"/>
<text text-anchor="middle" x="716.243" y="-101.3" font-family="Times,serif" font-size="14.00">DomainVersion</text>
</g>
<!-- Setting -->
<g id="node9" class="node"><title>Setting</title>
<ellipse fill="none" stroke="black" cx="933.243" cy="-533" rx="35.9954" ry="18"/>
<text text-anchor="middle" x="933.243" y="-529.3" font-family="Times,serif" font-size="14.00">Setting</text>
</g>
<!-- Nameserver -->
<g id="node10" class="node"><title>Nameserver</title>
<ellipse fill="none" stroke="black" cx="81.2428" cy="-105" rx="53.8905" ry="18"/>
<text text-anchor="middle" x="81.2428" y="-101.3" font-family="Times,serif" font-size="14.00">Nameserver</text>
</g>
<!-- NameserverVersion -->
<g id="node15" class="node"><title>NameserverVersion</title>
<ellipse fill="none" stroke="black" cx="81.2428" cy="-18" rx="81.4863" ry="18"/>
<text text-anchor="middle" x="81.2428" y="-14.3" font-family="Times,serif" font-size="14.00">NameserverVersion</text>
</g>
<!-- Nameserver&#45;&gt;NameserverVersion -->
<g id="edge7" class="edge"><title>Nameserver&#45;&gt;NameserverVersion</title>
<path fill="none" stroke="#cfe7f4" d="M81.2428,-78.6937C81.2428,-68.5119 81.2428,-56.7466 81.2428,-46.3666"/>
<ellipse fill="none" stroke="#cfe7f4" cx="81.2428" cy="-82.799" rx="4" ry="4"/>
<polygon fill="#cfe7f4" stroke="#cfe7f4" points="81.2429,-46.1754 85.7428,-36.1754 81.2428,-41.1754 81.2428,-36.1754 81.2428,-36.1754 81.2428,-36.1754 81.2428,-41.1754 76.7428,-36.1755 81.2429,-46.1754 81.2429,-46.1754"/>
<text text-anchor="middle" x="104.243" y="-57.8" font-family="Times,serif" font-size="14.00">versions</text>
</g>
<!-- EppUser -->
<g id="node11" class="node"><title>EppUser</title>
<ellipse fill="none" stroke="black" cx="622.243" cy="-352" rx="41.6928" ry="18"/>
<text text-anchor="middle" x="622.243" y="-348.3" font-family="Times,serif" font-size="14.00">EppUser</text>
</g>
<!-- EppUser&#45;&gt;Contact -->
<g id="edge8" class="edge"><title>EppUser&#45;&gt;Contact</title>
<path fill="none" stroke="#bed6a7" d="M658.869,-335.881C687.759,-323.955 727.89,-307.39 756.951,-295.394"/>
<ellipse fill="none" stroke="#bed6a7" cx="655.118" cy="-337.43" rx="4.00002" ry="4.00002"/>
<polygon fill="#bed6a7" stroke="#bed6a7" points="757.106,-295.33 768.067,-295.674 761.728,-293.422 766.35,-291.514 766.35,-291.514 766.35,-291.514 761.728,-293.422 764.632,-287.355 757.106,-295.33 757.106,-295.33"/>
</g>
<!-- Country -->
<g id="node12" class="node"><title>Country</title>
<ellipse fill="none" stroke="black" cx="1026.24" cy="-533" rx="39.7935" ry="18"/>
<text text-anchor="middle" x="1026.24" y="-529.3" font-family="Times,serif" font-size="14.00">Country</text>
</g>
<!-- ZonefileSetting -->
<g id="node13" class="node"><title>ZonefileSetting</title>
<ellipse fill="none" stroke="black" cx="1149.24" cy="-533" rx="65.7887" ry="18"/>
<text text-anchor="middle" x="1149.24" y="-529.3" font-family="Times,serif" font-size="14.00">ZonefileSetting</text>
</g>
<!-- CachedNameserver -->
<g id="node14" class="node"><title>CachedNameserver</title>
<ellipse fill="none" stroke="black" cx="1313.24" cy="-533" rx="79.8859" ry="18"/>
<text text-anchor="middle" x="1313.24" y="-529.3" font-family="Times,serif" font-size="14.00">CachedNameserver</text>
</g>
<!-- Epp::EppDomain -->
<g id="node16" class="node"><title>Epp::EppDomain</title>
<ellipse fill="none" stroke="black" cx="1484.24" cy="-533" rx="72.5877" ry="18"/>
<text text-anchor="middle" x="1484.24" y="-529.3" font-family="Times,serif" font-size="14.00">Epp::EppDomain</text>
</g>
<!-- Epp::DomainContact -->
<g id="node31" class="node"><title>Epp::DomainContact</title>
<ellipse fill="none" stroke="black" cx="1004.24" cy="-425" rx="85.5853" ry="18"/>
<text text-anchor="middle" x="1004.24" y="-421.3" font-family="Times,serif" font-size="14.00">Epp::DomainContact</text>
</g>
<!-- Epp::EppDomain&#45;&gt;Epp::DomainContact -->
<g id="edge9" class="edge"><title>Epp::EppDomain&#45;&gt;Epp::DomainContact</title>
<path fill="none" stroke="#3e691d" d="M1449.54,-512.535C1435.31,-505.464 1418.41,-498.189 1402.24,-494 1296.12,-466.507 1263.78,-497.287 1156.24,-476 1120.37,-468.9 1081.21,-455.884 1051.62,-444.911"/>
<ellipse fill="none" stroke="#3e691d" cx="1453.15" cy="-514.379" rx="4.00002" ry="4.00002"/>
<polygon fill="#3e691d" stroke="#3e691d" points="1051.33,-444.802 1043.55,-437.069 1046.65,-443.041 1041.97,-441.28 1041.97,-441.28 1041.97,-441.28 1046.65,-443.041 1040.38,-445.492 1051.33,-444.802 1051.33,-444.802"/>
</g>
<!-- Epp::Contact -->
<g id="node32" class="node"><title>Epp::Contact</title>
<ellipse fill="none" stroke="black" cx="1165.24" cy="-425" rx="57.3905" ry="18"/>
<text text-anchor="middle" x="1165.24" y="-421.3" font-family="Times,serif" font-size="14.00">Epp::Contact</text>
</g>
<!-- Epp::EppDomain&#45;&gt;Epp::Contact -->
<g id="edge10" class="edge"><title>Epp::EppDomain&#45;&gt;Epp::Contact</title>
<path fill="none" stroke="#8126a8" d="M1447.56,-511.587C1433.75,-504.832 1417.66,-498.02 1402.24,-494 1376.8,-487.365 1184.31,-495.11 1166.24,-476 1160.54,-469.967 1158.96,-461.464 1159.21,-453.179"/>
<polygon fill="#8126a8" stroke="#8126a8" points="1447.79,-511.704 1454.68,-520.234 1452.25,-513.961 1456.71,-516.219 1456.71,-516.219 1456.71,-516.219 1452.25,-513.961 1458.74,-512.204 1447.79,-511.704 1447.79,-511.704"/>
<polygon fill="#8126a8" stroke="#8126a8" points="1159.24,-452.942 1164.82,-443.502 1159.79,-447.972 1160.35,-443.003 1160.35,-443.003 1160.35,-443.003 1159.79,-447.972 1155.88,-442.504 1159.24,-452.942 1159.24,-452.942"/>
<text text-anchor="middle" x="1203.24" y="-464.8" font-family="Times,serif" font-size="14.00">tech_contacts</text>
</g>
<!-- Epp::EppDomain&#45;&gt;Epp::Contact -->
<g id="edge11" class="edge"><title>Epp::EppDomain&#45;&gt;Epp::Contact</title>
<path fill="none" stroke="#6800cc" d="M1446.71,-511.896C1433.04,-505.307 1417.26,-498.524 1402.24,-494 1351.45,-478.695 1335.31,-490.384 1284.24,-476 1256.5,-468.185 1226.59,-455.601 1203.7,-445.013"/>
<polygon fill="#6800cc" stroke="#6800cc" points="1446.84,-511.959 1453.81,-520.429 1451.32,-514.177 1455.8,-516.396 1455.8,-516.396 1455.8,-516.396 1451.32,-514.177 1457.8,-512.363 1446.84,-511.959 1446.84,-511.959"/>
<polygon fill="#6800cc" stroke="#6800cc" points="1203.4,-444.87 1196.26,-436.544 1198.87,-442.743 1194.35,-440.617 1194.35,-440.617 1194.35,-440.617 1198.87,-442.743 1192.43,-444.69 1203.4,-444.87 1203.4,-444.87"/>
<text text-anchor="middle" x="1327.24" y="-464.8" font-family="Times,serif" font-size="14.00">admin_contacts</text>
</g>
<!-- Epp::Nameserver -->
<g id="node33" class="node"><title>Epp::Nameserver</title>
<ellipse fill="none" stroke="black" cx="1313.24" cy="-425" rx="72.5877" ry="18"/>
<text text-anchor="middle" x="1313.24" y="-421.3" font-family="Times,serif" font-size="14.00">Epp::Nameserver</text>
</g>
<!-- Epp::EppDomain&#45;&gt;Epp::Nameserver -->
<g id="edge12" class="edge"><title>Epp::EppDomain&#45;&gt;Epp::Nameserver</title>
<path fill="none" stroke="#b2a1df" d="M1451.52,-511.715C1421.72,-493.241 1377.86,-466.055 1347.57,-447.277"/>
<ellipse fill="none" stroke="#b2a1df" cx="1455.24" cy="-514.023" rx="4.00002" ry="4.00002"/>
<polygon fill="#b2a1df" stroke="#b2a1df" points="1347.52,-447.246 1341.39,-438.153 1343.27,-444.612 1339.02,-441.978 1339.02,-441.978 1339.02,-441.978 1343.27,-444.612 1336.65,-445.803 1347.52,-447.246 1347.52,-447.246"/>
</g>
<!-- Epp::DomainStatus -->
<g id="node34" class="node"><title>Epp::DomainStatus</title>
<ellipse fill="none" stroke="black" cx="1484.24" cy="-425" rx="79.8859" ry="18"/>
<text text-anchor="middle" x="1484.24" y="-421.3" font-family="Times,serif" font-size="14.00">Epp::DomainStatus</text>
</g>
<!-- Epp::EppDomain&#45;&gt;Epp::DomainStatus -->
<g id="edge13" class="edge"><title>Epp::EppDomain&#45;&gt;Epp::DomainStatus</title>
<path fill="none" stroke="#3c4c88" d="M1484.24,-506.795C1484.24,-490.735 1484.24,-469.927 1484.24,-453.45"/>
<ellipse fill="none" stroke="#3c4c88" cx="1484.24" cy="-510.969" rx="4" ry="4"/>
<polygon fill="#3c4c88" stroke="#3c4c88" points="1484.24,-453.341 1488.74,-443.341 1484.24,-448.341 1484.24,-443.341 1484.24,-443.341 1484.24,-443.341 1484.24,-448.341 1479.74,-443.341 1484.24,-453.341 1484.24,-453.341"/>
</g>
<!-- Epp::DomainTransfer -->
<g id="node35" class="node"><title>Epp::DomainTransfer</title>
<ellipse fill="none" stroke="black" cx="1670.24" cy="-425" rx="88.2844" ry="18"/>
<text text-anchor="middle" x="1670.24" y="-421.3" font-family="Times,serif" font-size="14.00">Epp::DomainTransfer</text>
</g>
<!-- Epp::EppDomain&#45;&gt;Epp::DomainTransfer -->
<g id="edge14" class="edge"><title>Epp::EppDomain&#45;&gt;Epp::DomainTransfer</title>
<path fill="none" stroke="#20469a" d="M1519.37,-511.983C1551.82,-493.49 1599.87,-466.105 1632.98,-447.234"/>
<ellipse fill="none" stroke="#20469a" cx="1515.56" cy="-514.15" rx="4.00002" ry="4.00002"/>
<polygon fill="#20469a" stroke="#20469a" points="1633.21,-447.103 1644.13,-446.061 1637.56,-444.628 1641.9,-442.152 1641.9,-442.152 1641.9,-442.152 1637.56,-444.628 1639.67,-438.242 1633.21,-447.103 1633.21,-447.103"/>
</g>
<!-- Epp::Dnskey -->
<g id="node36" class="node"><title>Epp::Dnskey</title>
<ellipse fill="none" stroke="black" cx="1833.24" cy="-425" rx="56.59" ry="18"/>
<text text-anchor="middle" x="1833.24" y="-421.3" font-family="Times,serif" font-size="14.00">Epp::Dnskey</text>
</g>
<!-- Epp::EppDomain&#45;&gt;Epp::Dnskey -->
<g id="edge15" class="edge"><title>Epp::EppDomain&#45;&gt;Epp::Dnskey</title>
<path fill="none" stroke="#549b6f" d="M1521.5,-512.958C1535.32,-506.371 1551.27,-499.316 1566.24,-494 1653.09,-463.158 1677.95,-465.828 1767.24,-443 1771.62,-441.882 1776.15,-440.719 1780.71,-439.55"/>
<ellipse fill="none" stroke="#549b6f" cx="1517.66" cy="-514.814" rx="4.00002" ry="4.00002"/>
<polygon fill="#549b6f" stroke="#549b6f" points="1780.96,-439.486 1791.76,-441.355 1785.8,-438.241 1790.64,-436.996 1790.64,-436.996 1790.64,-436.996 1785.8,-438.241 1789.52,-432.638 1780.96,-439.486 1780.96,-439.486"/>
</g>
<!-- Epp::Keyrelay -->
<g id="node37" class="node"><title>Epp::Keyrelay</title>
<ellipse fill="none" stroke="black" cx="1969.24" cy="-425" rx="61.99" ry="18"/>
<text text-anchor="middle" x="1969.24" y="-421.3" font-family="Times,serif" font-size="14.00">Epp::Keyrelay</text>
</g>
<!-- Epp::EppDomain&#45;&gt;Epp::Keyrelay -->
<g id="edge16" class="edge"><title>Epp::EppDomain&#45;&gt;Epp::Keyrelay</title>
<path fill="none" stroke="#b750d6" d="M1520.2,-512.66C1534.23,-505.837 1550.65,-498.703 1566.24,-494 1602.08,-483.19 1862.52,-450.257 1899.24,-443 1904.25,-442.01 1909.44,-440.904 1914.63,-439.743"/>
<ellipse fill="none" stroke="#b750d6" cx="1516.26" cy="-514.619" rx="4.00002" ry="4.00002"/>
<polygon fill="#b750d6" stroke="#b750d6" points="1914.81,-439.701 1925.57,-441.845 1919.69,-438.581 1924.56,-437.46 1924.56,-437.46 1924.56,-437.46 1919.69,-438.581 1923.55,-433.074 1914.81,-439.701 1914.81,-439.701"/>
</g>
<!-- Epp::DomainVersion -->
<g id="node38" class="node"><title>Epp::DomainVersion</title>
<ellipse fill="none" stroke="black" cx="2135.24" cy="-425" rx="86.3847" ry="18"/>
<text text-anchor="middle" x="2135.24" y="-421.3" font-family="Times,serif" font-size="14.00">Epp::DomainVersion</text>
</g>
<!-- Epp::EppDomain&#45;&gt;Epp::DomainVersion -->
<g id="edge17" class="edge"><title>Epp::EppDomain&#45;&gt;Epp::DomainVersion</title>
<path fill="none" stroke="#fc9fa3" d="M1519.37,-512.648C1533.53,-505.669 1550.28,-498.428 1566.24,-494 1566.64,-493.889 2039.83,-443.059 2040.24,-443 2047.82,-441.915 2055.72,-440.676 2063.59,-439.372"/>
<ellipse fill="none" stroke="#fc9fa3" cx="1515.78" cy="-514.456" rx="4.00002" ry="4.00002"/>
<polygon fill="#fc9fa3" stroke="#fc9fa3" points="2063.65,-439.362 2074.26,-442.129 2068.58,-438.527 2073.51,-437.692 2073.51,-437.692 2073.51,-437.692 2068.58,-438.527 2072.76,-433.256 2063.65,-439.362 2063.65,-439.362"/>
<text text-anchor="middle" x="1882.24" y="-464.8" font-family="Times,serif" font-size="14.00">versions</text>
</g>
<!-- Message -->
<g id="node17" class="node"><title>Message</title>
<ellipse fill="none" stroke="black" cx="724.243" cy="-352" rx="42.4939" ry="18"/>
<text text-anchor="middle" x="724.243" y="-348.3" font-family="Times,serif" font-size="14.00">Message</text>
</g>
<!-- EppSession -->
<g id="node18" class="node"><title>EppSession</title>
<ellipse fill="none" stroke="black" cx="1627.24" cy="-533" rx="51.9908" ry="18"/>
<text text-anchor="middle" x="1627.24" y="-529.3" font-family="Times,serif" font-size="14.00">EppSession</text>
</g>
<!-- AddressVersion -->
<g id="node19" class="node"><title>AddressVersion</title>
<ellipse fill="none" stroke="black" cx="1186.24" cy="-105" rx="67.6881" ry="18"/>
<text text-anchor="middle" x="1186.24" y="-101.3" font-family="Times,serif" font-size="14.00">AddressVersion</text>
</g>
<!-- Keyrelay -->
<g id="node21" class="node"><title>Keyrelay</title>
<ellipse fill="none" stroke="black" cx="196.243" cy="-105" rx="42.7926" ry="18"/>
<text text-anchor="middle" x="196.243" y="-101.3" font-family="Times,serif" font-size="14.00">Keyrelay</text>
</g>
<!-- ReservedDomain -->
<g id="node22" class="node"><title>ReservedDomain</title>
<ellipse fill="none" stroke="black" cx="1769.24" cy="-533" rx="72.2875" ry="18"/>
<text text-anchor="middle" x="1769.24" y="-529.3" font-family="Times,serif" font-size="14.00">ReservedDomain</text>
</g>
<!-- Registrar -->
<g id="node23" class="node"><title>Registrar</title>
<ellipse fill="none" stroke="black" cx="724.243" cy="-425" rx="42.7926" ry="18"/>
<text text-anchor="middle" x="724.243" y="-421.3" font-family="Times,serif" font-size="14.00">Registrar</text>
</g>
<!-- Registrar&#45;&gt;Contact -->
<g id="edge19" class="edge"><title>Registrar&#45;&gt;Contact</title>
<path fill="none" stroke="#0d46eb" d="M749.334,-402.956C758.796,-393.761 768.814,-382.276 775.243,-370 785.462,-350.488 790.185,-325.875 792.367,-307.322"/>
<ellipse fill="none" stroke="#0d46eb" cx="746.163" cy="-405.921" rx="4.00002" ry="4.00002"/>
<polygon fill="#0d46eb" stroke="#0d46eb" points="792.386,-307.134 797.859,-297.631 792.884,-302.159 793.381,-297.183 793.381,-297.183 793.381,-297.183 792.884,-302.159 788.904,-296.736 792.386,-307.134 792.386,-307.134"/>
</g>
<!-- Registrar&#45;&gt;EppUser -->
<g id="edge20" class="edge"><title>Registrar&#45;&gt;EppUser</title>
<path fill="none" stroke="#0f6841" d="M696.232,-404.502C682.399,-394.873 665.711,-383.257 651.688,-373.496"/>
<ellipse fill="none" stroke="#0f6841" cx="699.825" cy="-407.004" rx="4.00002" ry="4.00002"/>
<polygon fill="#0f6841" stroke="#0f6841" points="651.558,-373.405 645.921,-363.999 647.454,-370.549 643.35,-367.692 643.35,-367.692 643.35,-367.692 647.454,-370.549 640.779,-371.386 651.558,-373.405 651.558,-373.405"/>
</g>
<!-- Registrar&#45;&gt;Message -->
<g id="edge22" class="edge"><title>Registrar&#45;&gt;Message</title>
<path fill="none" stroke="#5bd5eb" d="M724.243,-398.791C724.243,-392.832 724.243,-386.45 724.243,-380.399"/>
<ellipse fill="none" stroke="#5bd5eb" cx="724.243" cy="-402.813" rx="4" ry="4"/>
<polygon fill="#5bd5eb" stroke="#5bd5eb" points="724.243,-380.029 728.743,-370.029 724.243,-375.029 724.243,-370.029 724.243,-370.029 724.243,-370.029 724.243,-375.029 719.743,-370.029 724.243,-380.029 724.243,-380.029"/>
</g>
<!-- User -->
<g id="node24" class="node"><title>User</title>
<ellipse fill="none" stroke="black" cx="849.243" cy="-352" rx="27.0966" ry="18"/>
<text text-anchor="middle" x="849.243" y="-348.3" font-family="Times,serif" font-size="14.00">User</text>
</g>
<!-- Registrar&#45;&gt;User -->
<g id="edge21" class="edge"><title>Registrar&#45;&gt;User</title>
<path fill="none" stroke="#7c58ec" d="M764.698,-410.232C778.96,-404.589 794.783,-397.395 808.243,-389 814.874,-384.864 821.489,-379.655 827.41,-374.495"/>
<ellipse fill="none" stroke="#7c58ec" cx="760.693" cy="-411.771" rx="4.00001" ry="4.00001"/>
<polygon fill="#7c58ec" stroke="#7c58ec" points="827.596,-374.325 838.019,-370.919 831.293,-370.959 834.989,-367.592 834.989,-367.592 834.989,-367.592 831.293,-370.959 831.96,-364.265 827.596,-374.325 827.596,-374.325"/>
</g>
<!-- Registrar&#45;&gt;Domain -->
<g id="edge18" class="edge"><title>Registrar&#45;&gt;Domain</title>
<path fill="none" stroke="#d8ef9b" d="M673.49,-420.669C638.545,-415.428 594.395,-402.334 571.243,-370 539.354,-325.464 550.901,-257.14 560.858,-219.743"/>
<ellipse fill="none" stroke="#d8ef9b" cx="677.738" cy="-421.246" rx="4.00001" ry="4.00001"/>
<polygon fill="#d8ef9b" stroke="#d8ef9b" points="560.874,-219.686 567.918,-211.281 562.23,-214.873 563.587,-210.061 563.587,-210.061 563.587,-210.061 562.23,-214.873 559.256,-208.84 560.874,-219.686 560.874,-219.686"/>
</g>
<!-- Role&#45;&gt;User -->
<g id="edge23" class="edge"><title>Role&#45;&gt;User</title>
<path fill="none" stroke="#4adefa" d="M849.243,-398.791C849.243,-392.832 849.243,-386.45 849.243,-380.399"/>
<ellipse fill="none" stroke="#4adefa" cx="849.243" cy="-402.813" rx="4" ry="4"/>
<polygon fill="#4adefa" stroke="#4adefa" points="849.243,-380.029 853.743,-370.029 849.243,-375.029 849.243,-370.029 849.243,-370.029 849.243,-370.029 849.243,-375.029 844.743,-370.029 849.243,-380.029 849.243,-380.029"/>
</g>
<!-- Address&#45;&gt;AddressVersion -->
<g id="edge24" class="edge"><title>Address&#45;&gt;AddressVersion</title>
<path fill="none" stroke="#6aa72f" d="M1186.24,-165.694C1186.24,-155.512 1186.24,-143.747 1186.24,-133.367"/>
<ellipse fill="none" stroke="#6aa72f" cx="1186.24" cy="-169.799" rx="4" ry="4"/>
<polygon fill="#6aa72f" stroke="#6aa72f" points="1186.24,-133.175 1190.74,-123.175 1186.24,-128.175 1186.24,-123.175 1186.24,-123.175 1186.24,-123.175 1186.24,-128.175 1181.74,-123.175 1186.24,-133.175 1186.24,-133.175"/>
<text text-anchor="middle" x="1209.24" y="-144.8" font-family="Times,serif" font-size="14.00">versions</text>
</g>
<!-- Domain&#45;&gt;DomainContact -->
<g id="edge25" class="edge"><title>Domain&#45;&gt;DomainContact</title>
<path fill="none" stroke="#6209cb" d="M610.816,-180.442C637.091,-173.675 671.727,-164.581 702.243,-156 740.924,-145.123 784.4,-132.08 817.295,-122.043"/>
<ellipse fill="none" stroke="#6209cb" cx="606.818" cy="-181.469" rx="4.00001" ry="4.00001"/>
<polygon fill="#6209cb" stroke="#6209cb" points="817.583,-121.955 828.462,-123.334 822.365,-120.492 827.146,-119.03 827.146,-119.03 827.146,-119.03 822.365,-120.492 825.83,-114.727 817.583,-121.955 817.583,-121.955"/>
</g>
<!-- Domain&#45;&gt;Contact -->
<g id="edge26" class="edge"><title>Domain&#45;&gt;Contact</title>
<path fill="none" stroke="#12675c" d="M581.884,-218.779C587.529,-227.764 595.016,-237.072 604.243,-243 627.36,-257.854 698.715,-268.031 747.093,-273.433"/>
<polygon fill="#12675c" stroke="#12675c" points="581.842,-218.706 580.756,-207.794 579.348,-214.372 576.855,-210.038 576.855,-210.038 576.855,-210.038 579.348,-214.372 572.955,-212.282 581.842,-218.706 581.842,-218.706"/>
<polygon fill="#12675c" stroke="#12675c" points="747.1,-273.434 756.556,-278.987 752.071,-273.974 757.041,-274.514 757.041,-274.514 757.041,-274.514 752.071,-273.974 757.527,-270.04 747.1,-273.434 747.1,-273.434"/>
<text text-anchor="middle" x="641.243" y="-231.8" font-family="Times,serif" font-size="14.00">tech_contacts</text>
</g>
<!-- Domain&#45;&gt;Contact -->
<g id="edge27" class="edge"><title>Domain&#45;&gt;Contact</title>
<path fill="none" stroke="#50d0e3" d="M613.153,-204.192C633.448,-210.093 657.577,-218.162 678.243,-228 689.262,-233.246 690.356,-237.485 701.243,-243 717.967,-251.472 737.25,-259.059 753.907,-264.985"/>
<polygon fill="#50d0e3" stroke="#50d0e3" points="613.152,-204.192 604.754,-197.141 608.341,-202.831 603.529,-201.471 603.529,-201.471 603.529,-201.471 608.341,-202.831 602.305,-205.801 613.152,-204.192 613.152,-204.192"/>
<polygon fill="#50d0e3" stroke="#50d0e3" points="753.927,-264.991 761.894,-272.526 758.649,-266.634 763.372,-268.276 763.372,-268.276 763.372,-268.276 758.649,-266.634 764.85,-264.026 753.927,-264.991 753.927,-264.991"/>
<text text-anchor="middle" x="744.243" y="-231.8" font-family="Times,serif" font-size="14.00">admin_contacts</text>
</g>
<!-- Domain&#45;&gt;DomainVersion -->
<g id="edge33" class="edge"><title>Domain&#45;&gt;DomainVersion</title>
<path fill="none" stroke="#9123f3" d="M599.978,-173.228C623.455,-159.653 655.859,-140.916 680.496,-126.67"/>
<ellipse fill="none" stroke="#9123f3" cx="596.324" cy="-175.341" rx="4.00002" ry="4.00002"/>
<polygon fill="#9123f3" stroke="#9123f3" points="680.533,-126.649 691.442,-125.539 684.861,-124.146 689.19,-121.643 689.19,-121.643 689.19,-121.643 684.861,-124.146 686.937,-117.747 680.533,-126.649 680.533,-126.649"/>
<text text-anchor="middle" x="675.243" y="-144.8" font-family="Times,serif" font-size="14.00">versions</text>
</g>
<!-- Domain&#45;&gt;Nameserver -->
<g id="edge28" class="edge"><title>Domain&#45;&gt;Nameserver</title>
<path fill="none" stroke="#aaaeb3" d="M523.187,-185.604C444.792,-175.98 280.648,-153.924 144.243,-123 139.899,-122.015 135.404,-120.932 130.907,-119.804"/>
<ellipse fill="none" stroke="#aaaeb3" cx="527.439" cy="-186.122" rx="4.00001" ry="4.00001"/>
<polygon fill="#aaaeb3" stroke="#aaaeb3" points="130.798,-119.776 122.236,-112.925 125.956,-118.53 121.114,-117.283 121.114,-117.283 121.114,-117.283 125.956,-118.53 119.992,-121.641 130.798,-119.776 130.798,-119.776"/>
</g>
<!-- Domain&#45;&gt;Keyrelay -->
<g id="edge32" class="edge"><title>Domain&#45;&gt;Keyrelay</title>
<path fill="none" stroke="#67d30a" d="M524.763,-183.212C462.45,-171.932 345.847,-149.475 248.243,-123 244.887,-122.09 241.427,-121.092 237.963,-120.051"/>
<ellipse fill="none" stroke="#67d30a" cx="528.885" cy="-183.954" rx="4.00001" ry="4.00001"/>
<polygon fill="#67d30a" stroke="#67d30a" points="237.815,-120.005 229.601,-112.739 233.04,-118.521 228.265,-117.037 228.265,-117.037 228.265,-117.037 233.04,-118.521 226.93,-121.334 237.815,-120.005 237.815,-120.005"/>
</g>
<!-- Dnskey -->
<g id="node28" class="node"><title>Dnskey</title>
<ellipse fill="none" stroke="black" cx="295.243" cy="-105" rx="37.8943" ry="18"/>
<text text-anchor="middle" x="295.243" y="-101.3" font-family="Times,serif" font-size="14.00">Dnskey</text>
</g>
<!-- Domain&#45;&gt;Dnskey -->
<g id="edge31" class="edge"><title>Domain&#45;&gt;Dnskey</title>
<path fill="none" stroke="#64c75b" d="M528.27,-179.637C482.44,-166.728 406.116,-144.637 341.243,-123 338.681,-122.146 336.048,-121.242 333.4,-120.314"/>
<ellipse fill="none" stroke="#64c75b" cx="532.336" cy="-180.779" rx="4.00001" ry="4.00001"/>
<polygon fill="#64c75b" stroke="#64c75b" points="333.267,-120.267 325.369,-112.659 328.559,-118.581 323.852,-116.896 323.852,-116.896 323.852,-116.896 328.559,-118.581 322.335,-121.132 333.267,-120.267 333.267,-120.267"/>
</g>
<!-- DomainTransfer -->
<g id="node29" class="node"><title>DomainTransfer</title>
<ellipse fill="none" stroke="black" cx="420.243" cy="-105" rx="69.5877" ry="18"/>
<text text-anchor="middle" x="420.243" y="-101.3" font-family="Times,serif" font-size="14.00">DomainTransfer</text>
</g>
<!-- Domain&#45;&gt;DomainTransfer -->
<g id="edge30" class="edge"><title>Domain&#45;&gt;DomainTransfer</title>
<path fill="none" stroke="#510602" d="M538.409,-173.41C514.558,-159.804 481.478,-140.933 456.384,-126.617"/>
<ellipse fill="none" stroke="#510602" cx="542.159" cy="-175.549" rx="4.00002" ry="4.00002"/>
<polygon fill="#510602" stroke="#510602" points="456.218,-126.523 449.762,-117.659 451.875,-124.045 447.532,-121.568 447.532,-121.568 447.532,-121.568 451.875,-124.045 445.302,-125.476 456.218,-126.523 456.218,-126.523"/>
</g>
<!-- DomainStatus -->
<g id="node30" class="node"><title>DomainStatus</title>
<ellipse fill="none" stroke="black" cx="569.243" cy="-105" rx="61.1893" ry="18"/>
<text text-anchor="middle" x="569.243" y="-101.3" font-family="Times,serif" font-size="14.00">DomainStatus</text>
</g>
<!-- Domain&#45;&gt;DomainStatus -->
<g id="edge29" class="edge"><title>Domain&#45;&gt;DomainStatus</title>
<path fill="none" stroke="#2dc06d" d="M569.243,-165.694C569.243,-155.512 569.243,-143.747 569.243,-133.367"/>
<ellipse fill="none" stroke="#2dc06d" cx="569.243" cy="-169.799" rx="4" ry="4"/>
<polygon fill="#2dc06d" stroke="#2dc06d" points="569.243,-133.175 573.743,-123.175 569.243,-128.175 569.243,-123.175 569.243,-123.175 569.243,-123.175 569.243,-128.175 564.743,-123.175 569.243,-133.175 569.243,-133.175"/>
</g>
<!-- DomainStatus&#45;&gt;DomainStatusVersion -->
<g id="edge34" class="edge"><title>DomainStatus&#45;&gt;DomainStatusVersion</title>
<path fill="none" stroke="#e1e0ae" d="M569.243,-78.6937C569.243,-68.5119 569.243,-56.7466 569.243,-46.3666"/>
<ellipse fill="none" stroke="#e1e0ae" cx="569.243" cy="-82.799" rx="4" ry="4"/>
<polygon fill="#e1e0ae" stroke="#e1e0ae" points="569.243,-46.1754 573.743,-36.1754 569.243,-41.1754 569.243,-36.1754 569.243,-36.1754 569.243,-36.1754 569.243,-41.1754 564.743,-36.1755 569.243,-46.1754 569.243,-46.1754"/>
<text text-anchor="middle" x="592.243" y="-57.8" font-family="Times,serif" font-size="14.00">versions</text>
</g>
</g>
</svg>
